# xmcd
#
# Track frame offsets:
#	150
#	15555
#	26420
#	38715
#	51865
#	67655
#	82293
#	97023
#	111195
#	127073
#	140923
#	155975
#	170465
#	185060
#	199313
#	214565
#
# Disc length: 3065 seconds
#
# Revision: 1
# Processed by: cddbd v1.5.1PL0 Copyright (c) Steve Scherf et al.
# Submitted via: CDex 1.50Beta5
#
DISCID=ed0bf710
DTITLE=石原裕次郎 - 石原裕次郎 3
DYEAR=1900
DGENRE=
TTITLE0=世界を賭ける恋
TTITLE1=嵐の中を突っ走れ
TTITLE2=男なら夢を見ろ
TTITLE3=紅の翼
TTITLE4=俺はパイロット
TTITLE5=二人だけの夜
TTITLE6=ふるさとへ帰ろうよ
TTITLE7=男の心に風が降る
TTITLE8=清水の暴れん坊
TTITLE9=千切れ飛ぶ愛情
TTITLE10=夜霧のサンパウロ
TTITLE11=世界を賭ける男
TTITLE12=俺の巴里
TTITLE13=星の見えない街
TTITLE14=地獄の横町
TTITLE15=俺らにゃ俺らの夢がある
EXTD=
EXTT0=
EXTT1=
EXTT2=
EXTT3=
EXTT4=
EXTT5=
EXTT6=
EXTT7=
EXTT8=
EXTT9=
EXTT10=
EXTT11=
EXTT12=
EXTT13=
EXTT14=
EXTT15=
PLAYORDER=
